<svg width="60" height="60" viewBox="0 0 60 60" fill="none" xmlns="http://www.w3.org/2000/svg">
<path d="M31.8936 53.9761C30.9354 54.9242 29.3925 54.9242 28.4343 53.9761C16.183 41.8527 10 30.5964 10 20.1639C10 9.0277 19.0277 0 30.1639 0C41.3002 0 50.3279 9.0277 50.3279 20.1639C50.3279 30.5964 44.1449 41.8527 31.8936 53.9761ZM47.377 20.1639C47.377 10.6574 39.6705 2.95082 30.1639 2.95082C20.6574 2.95082 12.9508 10.6574 12.9508 20.1639C12.9508 29.5772 18.6515 40.0482 30.1639 51.5349C41.6764 40.0482 47.377 29.5772 47.377 20.1639ZM30.1639 28.5246C25.0032 28.5246 20.8197 24.341 20.8197 19.1803C20.8197 14.0196 25.0032 9.83607 30.1639 9.83607C35.3246 9.83607 39.5082 14.0196 39.5082 19.1803C39.5082 24.341 35.3246 28.5246 30.1639 28.5246ZM18.3607 57.0492H41.9672C42.7821 57.0492 43.4426 57.7097 43.4426 58.5246C43.4426 59.3394 42.7821 60 41.9672 60H18.3607C17.5458 60 16.8853 59.3394 16.8853 58.5246C16.8853 57.7097 17.5458 57.0492 18.3607 57.0492ZM30.1639 25.5738C33.6949 25.5738 36.5574 22.7113 36.5574 19.1803C36.5574 15.6493 33.6949 12.7869 30.1639 12.7869C26.6329 12.7869 23.7705 15.6493 23.7705 19.1803C23.7705 22.7113 26.6329 25.5738 30.1639 25.5738Z" fill="#2A2D33"/>
</svg>
