<svg version="1.1" xmlns="http://www.w3.org/2000/svg" xmlns:xlink="http://www.w3.org/1999/xlink"  width="100%" viewBox="0 0 512 512" enable-background="new 0 0 512 512">
<path fill="white" d=" M74.000000,1.000000 C204.355972,1.000000 334.711945,1.000000 465.247986,1.282113 C472.327026,7.060311 473.147217,14.403485 473.135590,22.744881 C472.944611,159.550995 473.000031,296.357452 472.999908,433.163849 C472.999908,443.297150 467.367523,448.999847 457.358124,448.999878 C338.548187,449.000092 219.738266,448.984497 100.928352,449.042572 C94.517273,449.045715 88.088051,449.461548 81.699081,450.037903 C63.324837,451.695465 46.074978,467.953888 42.963833,486.258362 C42.772835,487.382080 42.086693,488.421600 41.630932,489.500305 C41.420765,489.408020 41.210598,489.315735 41.000431,489.223450 C41.000431,488.725677 41.000435,488.227905 41.000435,487.730133 C41.000282,339.592651 40.999958,191.455154 41.003380,43.317669 C41.003407,42.154858 40.857094,40.946857 41.111343,39.835995 C45.173454,22.087820 55.356945,9.547346 72.542831,2.945813 C73.183212,2.699829 73.521133,1.666445 74.000000,1.000000 M272.000000,183.533707 C272.000000,180.426575 272.000000,177.319443 272.000000,174.210968 C292.661682,174.210968 312.769867,174.210968 333.112823,174.210968 C332.936646,175.577545 332.942902,176.756180 332.620087,177.836517 C330.326630,185.511993 328.019623,193.184235 325.616974,200.826080 C317.107178,227.892197 308.577026,254.951950 300.013489,282.001099 C296.340057,293.603973 302.760223,302.616302 314.820374,302.847961 C340.640167,303.343933 366.478912,303.220123 392.304260,302.899475 C403.857330,302.756042 410.111084,292.176697 407.632233,284.195648 C400.932465,262.624634 394.000854,241.125732 387.213593,219.581711 C382.467133,204.515656 377.806946,189.422424 373.051758,174.160065 C374.009308,174.092758 374.662842,174.016373 375.317505,174.005356 C385.661499,173.831070 392.313782,168.064987 391.949493,159.196426 C391.653809,151.997787 385.619690,144.804840 375.022339,144.897079 C342.529785,145.179947 310.033234,145.000000 277.538239,145.000000 C275.769867,145.000000 274.001495,145.000000 272.944580,145.000000 C271.924713,136.951279 271.580353,129.395538 269.881775,122.157562 C268.101593,114.571869 258.222626,110.852684 251.285446,114.238480 C243.929993,117.828445 242.419693,124.490028 242.042786,131.670197 C241.811554,136.075409 242.000015,140.502625 242.000015,145.000000 C240.144028,145.000000 238.983292,145.000000 237.822540,145.000000 C204.161057,145.000000 170.499084,144.909821 136.838669,145.100616 C131.983536,145.128143 127.513260,146.879791 124.689064,151.670242 C121.508492,157.065186 121.026451,161.857651 124.687073,167.423721 C128.716080,173.549942 134.522537,174.106674 140.881073,174.134415 C139.102661,180.143585 137.473221,185.984528 135.647141,191.763336 C126.132324,221.873688 116.733749,252.022537 106.931313,282.039307 C103.425423,292.774933 110.792519,302.804413 121.834213,302.916290 C147.660919,303.177979 173.499207,303.357758 199.318298,302.843140 C211.549896,302.599365 217.206284,293.164124 214.310349,283.755157 C205.399307,254.802795 196.417496,225.872192 187.461136,196.933762 C185.153244,189.476883 182.837952,182.022293 180.456985,174.343842 C201.460342,174.343842 221.679092,174.343842 241.660675,174.343842 C241.660675,229.087875 241.660675,283.487701 241.660675,338.000000 C227.998184,338.000000 214.673309,338.118225 201.351715,337.960815 C191.512970,337.844604 186.539764,345.416016 186.175308,352.262543 C185.804794,359.222961 192.194885,366.868774 200.830612,366.914581 C238.323761,367.113495 275.819214,367.108643 313.312286,366.902588 C320.322021,366.864075 325.778076,361.995270 327.934052,354.098328 C329.051849,350.003906 324.712952,341.925720 319.986420,339.637207 C317.752350,338.555511 315.019623,338.097076 312.504974,338.069458 C299.076691,337.922028 285.645905,338.000000 272.000000,338.000000 C272.000000,286.461578 272.000000,235.492325 272.000000,183.533707 z"/>
<path fill="none" d="M73.531342,1.000000 C73.521133,1.666445 73.183212,2.699829 72.542831,2.945813 C55.356945,9.547346 45.173454,22.087820 41.111343,39.835995 C40.857094,40.946857 41.003407,42.154858 41.003380,43.317669 C40.999958,191.455154 41.000282,339.592651 41.000435,487.730133 C41.000435,488.227905 41.000431,488.725677 41.000431,489.223450 C41.210598,489.315735 41.420765,489.408020 41.630932,489.500305 C42.086693,488.421600 42.772835,487.382080 42.963833,486.258362 C46.074978,467.953888 63.324837,451.695465 81.699081,450.037903 C88.088051,449.461548 94.517273,449.045715 100.928352,449.042572 C219.738266,448.984497 338.548187,449.000092 457.358124,448.999878 C467.367523,448.999847 472.999908,443.297150 472.999908,433.163849 C473.000031,296.357452 472.944611,159.550995 473.135590,22.744881 C473.147217,14.403485 472.327026,7.060311 465.713989,1.282113 C481.655640,1.000000 497.311279,1.000000 512.946838,1.000000 C512.946838,171.666672 512.946838,342.333344 512.946838,513.000000 C492.241547,513.000000 471.589447,513.000000 450.182678,512.717896 C451.950592,508.707733 456.023285,505.224823 456.659760,501.198700 C457.835175,493.763519 456.995850,486.009796 456.995850,478.000000 C455.153351,478.000000 453.698029,478.000000 452.242737,478.000000 C331.424194,478.000000 210.605652,478.000000 89.787109,478.000000 C89.287170,478.000000 88.786903,477.988098 88.287346,478.001862 C81.206238,478.196899 73.215828,483.977692 71.169289,490.382568 C68.967636,497.272919 72.025169,505.366211 78.446739,510.106873 C79.242645,510.694458 79.495499,512.017700 80.000000,513.000000 C53.684025,513.000000 27.368053,513.000000 1.053556,513.000000 C1.055033,342.333313 1.055033,171.666656 1.055033,1.000000 C25.094273,1.000000 49.078476,1.000000 73.531342,1.000000 z"/>
<path fill="white" d="M80.468658,513.000000 C79.495499,512.017700 79.242645,510.694458 78.446739,510.106873 C72.025169,505.366211 68.967636,497.272919 71.169289,490.382568 C73.215828,483.977692 81.206238,478.196899 88.287346,478.001862 C88.786903,477.988098 89.287170,478.000000 89.787109,478.000000 C210.605652,478.000000 331.424194,478.000000 452.242737,478.000000 C453.698029,478.000000 455.153351,478.000000 456.995850,478.000000 C456.995850,486.009796 457.835175,493.763519 456.659760,501.198700 C456.023285,505.224823 451.950592,508.707733 449.713989,512.717896 C326.979095,513.000000 203.958206,513.000000 80.468658,513.000000 z"/>
<path fill="none" d="M272.000000,184.028381 C272.000000,235.492325 272.000000,286.461578 272.000000,338.000000 C285.645905,338.000000 299.076691,337.922028 312.504974,338.069458 C315.019623,338.097076 317.752350,338.555511 319.986420,339.637207 C324.712952,341.925720 329.051849,350.003906 327.934052,354.098328 C325.778076,361.995270 320.322021,366.864075 313.312286,366.902588 C275.819214,367.108643 238.323761,367.113495 200.830612,366.914581 C192.194885,366.868774 185.804794,359.222961 186.175308,352.262543 C186.539764,345.416016 191.512970,337.844604 201.351715,337.960815 C214.673309,338.118225 227.998184,338.000000 241.660675,338.000000 C241.660675,283.487701 241.660675,229.087875 241.660675,174.343842 C221.679092,174.343842 201.460342,174.343842 180.456985,174.343842 C182.837952,182.022293 185.153244,189.476883 187.461136,196.933762 C196.417496,225.872192 205.399307,254.802795 214.310349,283.755157 C217.206284,293.164124 211.549896,302.599365 199.318298,302.843140 C173.499207,303.357758 147.660919,303.177979 121.834213,302.916290 C110.792519,302.804413 103.425423,292.774933 106.931313,282.039307 C116.733749,252.022537 126.132324,221.873688 135.647141,191.763336 C137.473221,185.984528 139.102661,180.143585 140.881073,174.134415 C134.522537,174.106674 128.716080,173.549942 124.687073,167.423721 C121.026451,161.857651 121.508492,157.065186 124.689064,151.670242 C127.513260,146.879791 131.983536,145.128143 136.838669,145.100616 C170.499084,144.909821 204.161057,145.000000 237.822540,145.000000 C238.983292,145.000000 240.144028,145.000000 242.000015,145.000000 C242.000015,140.502625 241.811554,136.075409 242.042786,131.670197 C242.419693,124.490028 243.929993,117.828445 251.285446,114.238480 C258.222626,110.852684 268.101593,114.571869 269.881775,122.157562 C271.580353,129.395538 271.924713,136.951279 272.944580,145.000000 C274.001495,145.000000 275.769867,145.000000 277.538239,145.000000 C310.033234,145.000000 342.529785,145.179947 375.022339,144.897079 C385.619690,144.804840 391.653809,151.997787 391.949493,159.196426 C392.313782,168.064987 385.661499,173.831070 375.317505,174.005356 C374.662842,174.016373 374.009308,174.092758 373.051758,174.160065 C377.806946,189.422424 382.467133,204.515656 387.213593,219.581711 C394.000854,241.125732 400.932465,262.624634 407.632233,284.195648 C410.111084,292.176697 403.857330,302.756042 392.304260,302.899475 C366.478912,303.220123 340.640167,303.343933 314.820374,302.847961 C302.760223,302.616302 296.340057,293.603973 300.013489,282.001099 C308.577026,254.951950 317.107178,227.892197 325.616974,200.826080 C328.019623,193.184235 330.326630,185.511993 332.620087,177.836517 C332.942902,176.756180 332.936646,175.577545 333.112823,174.210968 C312.769867,174.210968 292.661682,174.210968 272.000000,174.210968 C272.000000,177.319443 272.000000,180.426575 272.000000,184.028381 M171.033798,242.247208 C167.736145,231.247559 164.438492,220.247925 161.140839,209.248276 C160.797791,209.323380 160.454758,209.398483 160.111710,209.473587 C153.425568,230.871872 146.739410,252.270142 140.007309,273.815521 C153.963181,273.815521 167.397491,273.815521 181.359375,273.815521 C177.989624,263.322357 174.720871,253.143723 171.033798,242.247208 M368.000214,254.508728 C363.338745,239.688828 358.677307,224.868942 354.015869,210.049042 C353.596832,210.050659 353.177795,210.052292 352.758759,210.053909 C346.136414,231.200409 339.514069,252.346909 332.800415,273.784973 C346.725677,273.784973 360.259186,273.784973 374.078156,273.784973 C372.004913,267.451202 370.021912,261.393127 368.000214,254.508728 z"/>
<path fill="white" d="M171.242950,242.606140 C174.720871,253.143723 177.989624,263.322357 181.359375,273.815521 C167.397491,273.815521 153.963181,273.815521 140.007309,273.815521 C146.739410,252.270142 153.425568,230.871872 160.111710,209.473587 C160.454758,209.398483 160.797791,209.323380 161.140839,209.248276 C164.438492,220.247925 167.736145,231.247559 171.242950,242.606140 z"/>
<path fill="white" d="M368.019562,254.921875 C370.021912,261.393127 372.004913,267.451202 374.078156,273.784973 C360.259186,273.784973 346.725677,273.784973 332.800415,273.784973 C339.514069,252.346909 346.136414,21.200409 352.758759,210.053909 C353.177795,210.052292 353.596832,210.050659 354.015869,210.049042 C358.677307,224.868942 363.338745,239.688828 368.019562,254.921875 z"/>
</svg>
