<svg width="223" height="230" viewBox="0 0 223 230" fill="none" xmlns="http://www.w3.org/2000/svg">
<path d="M111.5 3.59375C49.9052 3.59375 0 53.457 0 115C0 176.543 49.9052 226.406 111.5 226.406C173.095 226.406 223 176.543 223 115C223 53.457 173.095 3.59375 111.5 3.59375ZM111.5 46.7188C133.35 46.7188 151.065 64.418 151.065 86.25C151.065 108.082 133.35 125.781 111.5 125.781C89.6496 125.781 71.9355 108.082 71.9355 86.25C71.9355 64.418 89.6496 46.7188 111.5 46.7188ZM111.5 201.25C85.1087 201.25 61.4599 189.301 45.6341 170.613C54.0865 154.711 70.6317 143.75 89.9194 143.75C90.9984 143.75 92.0774 143.93 93.1115 144.244C98.9563 146.131 105.071 147.344 111.5 147.344C117.929 147.344 124.089 146.131 129.889 144.244C130.923 143.93 132.002 143.75 133.081 143.75C152.368 143.75 168.914 154.711 177.366 170.613C161.54 189.301 137.891 201.25 111.5 201.25Z" fill="#576071"/>
</svg>
