<?xml version="1.0" encoding="utf-8"?>
<svg xmlns="http://www.w3.org/2000/svg" xmlns:xlink="http://www.w3.org/1999/xlink" style="margin: auto; background: none; display: block; shape-rendering: auto;" width="204px" height="204px" viewBox="0 0 100 100" preserveAspectRatio="xMidYMid">
<g transform="translate(50 50)">
<g>
<animateTransform attributeName="transform" type="rotate" values="0;40" keyTimes="0;1" dur="0.22883295194508008s" repeatCount="indefinite"></animateTransform><path d="M24.591665254715874 -4.5 L35.59166525471588 -4.5 L35.59166525471588 4.5 L24.591665254715874 4.5 A25 25 0 0 1 21.73085275900657 12.360017733254937 L21.73085275900657 12.360017733254937 L30.157341633315326 19.430681439806868 L24.372253146136472 26.325081427877674 L15.945764271827716 19.25441772132574 A25 25 0 0 1 8.70193274583152 23.43664580282394 L8.70193274583152 23.43664580282394 L10.612062700167755 34.26953108595823 L1.7487929230578794 35.83236468496061 L-0.16133703127835575 24.999479401826317 A25 25 0 0 1 -8.398718310327958 23.54700683194707 L-8.398718310327958 23.54700683194707 L-13.898718310327954 33.073286273575896 L-21.6929469443879 28.5732862735759 L-16.192946944387902 19.047006831947073 A25 25 0 0 1 -21.569515727728213 12.63946166857138 L-21.569515727728213 12.63946166857138 L-31.906134556373203 16.401683245153738 L-34.98431584630423 7.944449658080569 L-24.647697017659233 4.182228081498211 A25 25 0 0 1 -24.647697017659233 -4.182228081498206 L-24.647697017659233 -4.182228081498206 L-34.98431584630423 -7.944449658080561 L-31.90613455637321 -16.40168324515373 L-21.569515727728216 -12.639461668571375 A25 25 0 0 1 -16.192946944387916 -19.047006831947062 L-16.192946944387916 -19.047006831947062 L-21.69294694438792 -28.573286273575885 L-13.89871831032798 -33.07328627357588 L-8.398718310327977 -23.54700683194706 A25 25 0 0 1 -0.16133703127836188 -24.999479401826317 L-0.16133703127836188 -24.999479401826317 L1.7487929230578674 -35.83236468496061 L10.612062700167732 -34.26953108595824 L8.701932745831503 -23.43664580282395 A25 25 0 0 1 15.945764271827715 -19.25441772132574 L15.945764271827715 -19.25441772132574 L24.372253146136472 -26.325081427877677 L30.15734163331532 -19.430681439806882 L21.730852759006563 -12.360017733254947 A25 25 0 0 1 24.591665254715874 -4.500000000000002 M0 -17A17 17 0 1 0 0 17 A17 17 0 1 0 0 -17" fill="#fbcf02"></path></g></g>
<!-- [ldio] generated by https://loading.io/ --></svg>